<svg xmlns="http://www.w3.org/2000/svg" viewBox="200 80 500 500">
  <defs>
    <linearGradient id="yellowGrad" x1="0%" y1="0%" x2="100%" y2="100%">
      <stop offset="0%" stop-color="#FFE000" />
      <stop offset="100%" stop-color="#F2A900" />
    </linearGradient>
  </defs>

  <g transform="translate(400, 300)">
    <path d="M 0,110 L -160,30 L -160,-130 L 0,-50 Z" fill="url(#yellowGrad)" opacity="0.9" />

    <path d="M -40,70 L -160,10" stroke="#1A1A1A" stroke-width="3" opacity="0.3" />
    <path d="M -80,30 L -160,-10" stroke="#1A1A1A" stroke-width="3" opacity="0.3" />

    <path d="M 0,110 L 60,80 L 60,-80 L 0,-50 Z" fill="url(#yellowGrad)" />

    <path d="M 80,70 L 110,55 L 110,-55 L 80,-70 Z" fill="url(#yellowGrad)" opacity="0.8" />

    <rect x="130" y="-80" width="25" height="25" transform="skewY(-15)" fill="url(#yellowGrad)" />
    <rect x="130" y="-30" width="25" height="25" transform="skewY(-15)" fill="url(#yellowGrad)" opacity="0.9" />
    <rect x="130" y="20" width="25" height="25" transform="skewY(-15)" fill="url(#yellowGrad)" />
    <rect x="130" y="70" width="25" height="25" transform="skewY(-15)" fill="url(#yellowGrad)" opacity="0.7" />

    <rect x="175" y="-110" width="20" height="20" transform="skewY(-15)" fill="url(#yellowGrad)" />
    <rect x="175" y="-60" width="20" height="20" transform="skewY(-15)" fill="url(#yellowGrad)" opacity="0.8" />
    <rect x="175" y="0" width="20" height="20" transform="skewY(-15)" fill="url(#yellowGrad)" />
    <rect x="175" y="50" width="20" height="20" transform="skewY(-15)" fill="url(#yellowGrad)" opacity="0.5" />

    <rect x="220" y="-130" width="15" height="15" transform="skewY(-15)" fill="url(#yellowGrad)" opacity="0.9" />
    <rect x="225" y="-80" width="12" height="12" transform="skewY(-15)" fill="url(#yellowGrad)" />
    <rect x="220" y="-30" width="15" height="15" transform="skewY(-15)" fill="url(#yellowGrad)" opacity="0.4" />
    <rect x="230" y="20" width="12" height="12" transform="skewY(-15)" fill="url(#yellowGrad)" opacity="0.7" />

    <rect x="265" y="-150" width="10" height="10" transform="skewY(-15)" fill="url(#yellowGrad)" opacity="0.8" />
    <rect x="270" y="-100" width="8" height="8" transform="skewY(-15)" fill="url(#yellowGrad)" opacity="0.5" />
    <rect x="260" y="-50" width="10" height="10" transform="skewY(-15)" fill="url(#yellowGrad)" opacity="0.3" />
  </g>
</svg>
