<svg xmlns="http://www.w3.org/2000/svg" viewBox="0 0 1024 1024" width="1024" height="1024" role="img" aria-labelledby="title desc">
  <title>Biblivre App Icon — Dark</title>
  <desc>Rounded square with dark gradient and a clean open-book glyph forming the letter B.</desc>

  <!-- Background -->
  <defs>
    <linearGradient id="bg" x1="0" y1="0" x2="1" y2="1">
      <stop offset="0%" stop-color="#0B1020"/>
      <stop offset="100%" stop-color="#1E293B"/>
    </linearGradient>
    <linearGradient id="accent" x1="0" y1="0" x2="1" y2="1">
      <stop offset="0%" stop-color="#22D3EE"/>
      <stop offset="100%" stop-color="#818CF8"/>
    </linearGradient>
  </defs>

  <rect x="32" y="32" width="960" height="960" rx="220" fill="url(#bg)"/>

  <!-- Book/B monogram -->
  <!-- Center spine / ribbon -->
  <path d="M512 260 L512 764" fill="none" stroke="url(#accent)" stroke-width="44" stroke-linecap="round"/>
  <!-- Left page curve -->
  <path d="M512 352 C 420 300, 292 304, 256 392 C 224 468, 304 544, 410 568 C 292 586, 236 664, 288 728 C 344 798, 472 780, 512 736"
        fill="none" stroke="#FFFFFF" stroke-width="44" stroke-linecap="round" stroke-linejoin="round"/>
  <!-- Right page curve -->
  <path d="M512 352 C 604 300, 732 304, 768 392 C 800 468, 720 544, 614 568 C 732 586, 788 664, 736 728 C 680 798, 552 780, 512 736"
        fill="none" stroke="#FFFFFF" stroke-width="44" stroke-linecap="round" stroke-linejoin="round"/>
  <!-- Small bookmark notch to suggest the letter B -->
  <path d="M512 464 L560 504 L512 544 Z" fill="url(#accent)"/>
</svg>